{"title":"TRUE_GLORY_DISC2_Title3.avi","uid":10011633,"size":676996126,"categoryP":"video","categoryS":"movies","magnet":"?xt=urn:btih:82c658704194929cbb8fe7507e0f04c5c0b3df05&amp;dn=TRUE_GLORY_DISC2_Title3.avi&amp;tr=udp%3A%2F%2Ftracker.openbittorrent.com%3A80&amp;tr=udp%3A%2F%2Fopen.demonii.com%3A1337&amp;tr=udp%3A%2F%2Ftracker.coppersurfer.tk%3A6969&amp;tr=udp%3A%2F%2Fexodus.desync.com%3A6969","seeders":1,"leechers":0,"uploader":"CATRIX02","files":1,"time":1398107603,"description":"\n\n\n\n\n\n\n\nComplete name         :The.True .Glory.From.D-Day.To.The.Fall.Of .Berlin.dvd.rip.DISC.2\nFormat                                   : AVI\nFormat/Info                              : Audio Video Interleave\nFile size                                : 646 MiB\nDuration                                 : 55mn 2s\nOverall bit rate                         : 1 640 Kbps\nMovie name                               : TRUE_GLORY_DISC.2\nGenre                                    : Documentary_War_Movie\n &lt;a href=&quot;\nhttp://lookpic.com/O/i2/1128/YAr6Cl8N.jpeg&quot; rel=&quot;nofollow&quot; target=&quot;_NEW&quot;&gt;\nhttp://lookpic.com/O/i2/1128/YAr6Cl8N.jpeg&lt;/a&gt; &lt;a href=&quot;\nhttp://someimage.com/6V6Ooc4&quot; rel=&quot;nofollow&quot; target=&quot;_NEW&quot;&gt;\nhttp://someimage.com/6V6Ooc4&lt;/a&gt; &lt;a href=&quot;\nhttp://someimage.com/7ABFs9Q&quot; rel=&quot;nofollow&quot; target=&quot;_NEW&quot;&gt;\nhttp://someimage.com/7ABFs9Q&lt;/a&gt;\n\nID                                       : 0\nFormat                                   : MPEG-4 Visual\nFormat profile                           : Simple@L1\nFormat settings, BVOP                    : No\nFormat settings, QPel                    : No\nFormat settings, GMC                     : No warppoints\nFormat settings, Matrix                  : Default (H.263)\nCodec ID                                 : DX50\nCodec ID/Hint                            : DivX 5\nDuration                                 : 55mn 2s\nBit rate                                 : 1 500 Kbps\nWidth                                    : 720 pixels\nHeight                                   : 540 pixels\nDisplay aspect ratio                     : 4:3\nFrame rate                               : 25.000 fps\nColor space                              : YUV\nChroma subsampling                       : 4:2:0\nBit depth                                : 8 bits\nScan type                                : Progressive\nCompression mode                         : Lossy\nBits/(Pixel*Frame)                       : 0.154\nStream size                              : 590 MiB (91%)\nWriting library                          : Lavc54.79.100\n\nID                                       : 1\nFormat                                   : MPEG Audio\nFormat version                           : Version 1\nFormat profile                           : Layer 3\nCodec ID                                 : 55\nCodec ID/Hint                            : MP3\nDuration                                 : 55mn 2s\nBit rate mode                            : Constant\nBit rate                                 : 128 Kbps\nChannel(s)                               : 2 channels\nSampling rate                            : 44.1 KHz\nCompression mode                         : Lossy\nStream size                              : 50.4 MiB (8%)\nAlignment                                : Aligned on interleaves\nInterleave, duration                     : 26 ms (0.65 video frame)\n","torrent":{"xt":"urn:btih:82c658704194929cbb8fe7507e0f04c5c0b3df05","amp;dn":"TRUE_GLORY_DISC2_Title3.avi","amp;tr":["udp%3A%2F%2Ftracker.openbittorrent.com%3A80","udp%3A%2F%2Fopen.demonii.com%3A1337","udp%3A%2F%2Ftracker.coppersurfer.tk%3A6969","udp%3A%2F%2Fexodus.desync.com%3A6969"],"infoHash":"82c658704194929cbb8fe7507e0f04c5c0b3df05","infoHashBuffer":{"type":"Buffer","data":[130,198,88,112,65,148,146,156,187,143,231,80,126,15,4,197,192,179,223,5]},"announce":[],"urlList":[]}}